?xml version="1.0" encoding="utf-8"?>
<!-- Generator: Adobe Illustrator 27.5.0, SVG Export Plug-In . SVG Version: 6.00 Build 0)  -->
<svg version="1.1" xmlns="http://www.w3.org/2000/svg" xmlns:xlink="http://www.w3.org/1999/xlink" x="0px" y="0px"
	 viewBox="0 0 500 500" style="enable-background:new 0 0 500 500;" xml:space="preserve">
<g id="Background_Simple">
	<g>
		<path style="fill:#C6FF00;" d="M388.999,91.86c0,0-43.975-38.045-102.999-23.408c-59.023,14.636-84.963,64.391-119.533,98.117
			c-18.103,17.662-44.269,23.619-65.56,37.005c-68.074,42.8-61.039,143.567-10.597,182.942
			c43.668,34.088,99.296,39.103,172.502,16.953c73.206-22.151,125.515-35.214,172.457-103.266
			C482.212,232.15,443.042,143.34,388.999,91.86z"/>
		<path style="opacity:0.8;fill:#FFFFFF;" d="M388.999,91.86c0,0-43.975-38.045-102.999-23.408
			c-59.023,14.636-84.963,64.391-119.533,98.117c-18.103,17.662-44.269,23.619-65.56,37.005
			c-68.074,42.8-61.039,143.567-10.597,182.942c43.668,34.088,99.296,39.103,172.502,16.953
			c73.206-22.151,125.515-35.214,172.457-103.266C482.212,232.15,443.042,143.34,388.999,91.86z"/>
	</g>
</g>
<g id="Plants">
	<g>
		<g>
			<g>
				<g>
					<path style="fill:#C6FF00;" d="M121.081,215.562c0,0,0-5.122-7.171-12.293C106.739,196.098,102.129,192,102.129,192
						s-3.586,11.781,3.073,18.952c6.659,7.171,15.879,13.83,15.879,13.83V215.562z"/>
					<path style="fill:#C6FF00;" d="M110.674,247.552c0,0,0-5.122-7.171-12.294c-7.171-7.171-11.781-11.269-11.781-11.269
						s-3.586,11.781,3.073,18.953c6.659,7.171,15.879,13.83,15.879,13.83V247.552z"/>
					<path style="fill:#C6FF00;" d="M120.63,224.287c0,0,0.541-5.094,8.43-11.467c7.889-6.373,12.906-9.961,12.906-9.961
						s2.321,12.094-5.059,18.522c-7.38,6.427-17.251,12.075-17.251,12.075L120.63,224.287z"/>
					<path style="fill:#C6FF00;" d="M108.057,262.066c0,0,1.073-5.009,9.588-10.518c8.515-5.509,13.881-8.55,13.881-8.55
						s1.038,12.271-6.976,17.888c-8.014,5.617-18.425,10.196-18.425,10.196L108.057,262.066z"/>
					<path style="fill:#C6FF00;" d="M110.421,303.258c0,0,0-5.122,7.171-12.294c7.171-7.171,11.782-11.269,11.782-11.269
						s3.585,11.781-3.074,18.952c-6.659,7.171-15.879,13.83-15.879,13.83V303.258z"/>
					<path style="fill:#C6FF00;" d="M110.302,313.311c0,0,0.728-5.07-5.351-13.188c-6.079-8.118-10.06-12.829-10.06-12.829
						s-5.223,11.152,0.349,19.197c5.572,8.045,13.753,15.946,13.753,15.946L110.302,313.311z"/>
					<path style="fill:#C6FF00;" d="M103.23,343.108c0,0,0-5.122,7.171-12.293c7.171-7.171,11.781-11.269,11.781-11.269
						s3.586,11.781-3.073,18.953c-6.659,7.171-15.879,13.83-15.879,13.83V343.108z"/>
					<path style="fill:#C6FF00;" d="M108.019,370.123c0,0-1.298-4.955,3.824-13.709c5.121-8.754,8.543-13.885,8.543-13.885
						s6.452,10.489,1.827,19.113c-4.626,8.624-11.859,17.401-11.859,17.401L108.019,370.123z"/>
				</g>
				<path style="fill:none;stroke:#263238;stroke-linecap:round;stroke-linejoin:round;stroke-miterlimit:10;" d="M121.731,214.25
					c-0.42,5.475-1.042,11.14-1.964,15.905c-2.835,14.646-9.922,24.095-12.757,37.324c-2.835,13.229,5.303,30.272,3.124,47.263
					c-2.179,16.991-8.794,26.441-6.904,37.78c1.89,11.339,11.812,42.049,11.812,42.049"/>
				
					<line style="fill:none;stroke:#263238;stroke-linecap:round;stroke-linejoin:round;stroke-miterlimit:10;" x1="120.56" y1="227.691" x2="128.288" y2="221.76"/>
				
					<line style="fill:none;stroke:#263238;stroke-linecap:round;stroke-linejoin:round;stroke-miterlimit:10;" x1="120.919" y1="220.862" x2="117.684" y2="215.111"/>
				<path style="fill:none;stroke:#263238;stroke-linecap:round;stroke-linejoin:round;stroke-miterlimit:10;" d="M107.44,266.871
					c0,0,6.47-4.853,13.12-9.705"/>
				<path style="fill:none;stroke:#263238;stroke-linecap:round;stroke-linejoin:round;stroke-miterlimit:10;" d="M110.674,256.772
					c0,0-5.39-10.57-11.501-17.579"/>
				<path style="fill:none;stroke:#263238;stroke-linecap:round;stroke-linejoin:round;stroke-miterlimit:10;" d="M110.675,310.544
					c0,0,5.032-9.885,13.839-18.512"/>
				<path style="fill:none;stroke:#263238;stroke-linecap:round;stroke-linejoin:round;stroke-miterlimit:10;" d="M109.417,317.733
					c0,0-3.235-7.728-7.009-13.3c-3.774-5.571-4.314-6.29-4.314-6.29"/>
				<path style="fill:none;stroke:#263238;stroke-linecap:round;stroke-linejoin:round;stroke-miterlimit:10;" d="M103.231,352.522
					c0,0,2.592-6.572,5.827-11.784c3.235-5.212,7.548-9.885,7.548-9.885"/>
				<path style="fill:none;stroke:#263238;stroke-linecap:round;stroke-linejoin:round;stroke-miterlimit:10;" d="M110.354,379.043
					c0,0-0.757-6.134,1.938-11.346c2.696-5.212,5.751-12.041,7.009-14.737"/>
			</g>
			<g>
				<g>
					<path style="fill:#C6FF00;" d="M74.121,283.993c0,0-0.556-3.212,3.162-8.488c3.719-5.276,6.164-8.346,6.164-8.346
						s3.527,6.999,0.13,12.218c-3.397,5.22-8.456,10.396-8.456,10.396L74.121,283.993z"/>
					<path style="fill:#C6FF00;" d="M84.121,302.924c0,0-0.556-3.212,3.162-8.488c3.718-5.275,6.164-8.346,6.164-8.346
						s3.527,6.999,0.13,12.218c-3.397,5.22-8.456,10.397-8.456,10.397L84.121,302.924z"/>
					<path style="fill:#C6FF00;" d="M75.351,289.415c0,0-0.892-3.135-6.531-6.275c-5.639-3.14-9.174-4.846-9.174-4.846
						s-0.142,7.836,5.183,11.066c5.325,3.229,12.129,5.699,12.129,5.699L75.351,289.415z"/>
					<path style="fill:#C6FF00;" d="M87.337,311.741c0,0-1.217-3.024-7.154-5.555c-5.938-2.531-9.633-3.855-9.633-3.855
						s0.681,7.808,6.316,10.46c5.635,2.652,12.661,4.394,12.661,4.394L87.337,311.741z"/>
					<path style="fill:#C6FF00;" d="M90.326,337.828c0,0-0.556-3.212-5.831-6.931c-5.276-3.718-8.611-5.787-8.611-5.787
						s-0.97,7.777,3.985,11.551c4.954,3.774,11.459,6.949,11.459,6.949L90.326,337.828z"/>
					<path style="fill:#C6FF00;" d="M91.493,344.12c0,0-1.007-3.101,1.924-8.851c2.931-5.75,4.916-9.137,4.916-9.137
						s4.486,6.426,1.865,12.076c-2.621,5.65-6.893,11.493-6.893,11.493L91.493,344.12z"/>
					<path style="fill:#C6FF00;" d="M100.494,370.029c0,0,0.372-3.239,5.426-7.252c5.055-4.013,8.267-6.27,8.267-6.27
						s1.412,7.709-3.319,11.76c-4.731,4.051-11.044,7.591-11.044,7.591L100.494,370.029z"/>
					<path style="fill:#C6FF00;" d="M99.162,362.037c0,0-0.556-3.212-5.832-6.93c-5.275-3.719-8.611-5.788-8.611-5.788
						s-0.969,7.777,3.985,11.551c4.954,3.774,11.459,6.949,11.459,6.949L99.162,362.037z"/>
					<path style="fill:#C6FF00;" d="M99.092,379.497c0,0,0.276-3.248-3.886-8.181c-4.162-4.933-6.865-7.78-6.865-7.78
						s-2.908,7.278,0.929,12.184c3.837,4.906,9.325,9.624,9.325,9.624L99.092,379.497z"/>
				</g>
				<path style="fill:none;stroke:#263238;stroke-linecap:round;stroke-linejoin:round;stroke-miterlimit:10;" d="M73.572,283.241
					c0.857,3.387,1.863,6.872,2.958,9.76c3.368,8.877,8.838,14.033,12.051,22.021c3.214,7.988-0.039,19.559,3.172,29.977
					c3.211,10.418,8.385,15.626,8.431,22.941c0.046,7.316-2.842,27.65-2.842,27.65"/>
				
					<line style="fill:none;stroke:#263238;stroke-linecap:round;stroke-linejoin:round;stroke-miterlimit:10;" x1="75.765" y1="291.542" x2="70.275" y2="288.662"/>
				
					<line style="fill:none;stroke:#263238;stroke-linecap:round;stroke-linejoin:round;stroke-miterlimit:10;" x1="74.799" y1="287.299" x2="76.203" y2="283.341"/>
				<path style="fill:none;stroke:#263238;stroke-linecap:round;stroke-linejoin:round;stroke-miterlimit:10;" d="M88.246,314.687
					c0,0-4.584-2.341-9.281-4.662"/>
				<path style="fill:none;stroke:#263238;stroke-linecap:round;stroke-linejoin:round;stroke-miterlimit:10;" d="M85.122,308.706
					c0,0,2.233-7.213,5.304-12.272"/>
				<path style="fill:none;stroke:#263238;stroke-linecap:round;stroke-linejoin:round;stroke-miterlimit:10;" d="M90.959,342.425
					c0,0-4.229-5.652-10.688-10.106"/>
				<path style="fill:none;stroke:#263238;stroke-linecap:round;stroke-linejoin:round;stroke-miterlimit:10;" d="M92.528,346.796
					c0,0,1.19-5.197,2.951-9.101c1.762-3.903,2.022-4.413,2.022-4.413"/>
				<path style="fill:none;stroke:#263238;stroke-linecap:round;stroke-linejoin:round;stroke-miterlimit:10;" d="M99.935,373.489
					c0,0,3.639-4.46,5.904-6.129c2.265-1.669,3.834-3.334,3.834-3.334"/>
				<path style="fill:none;stroke:#263238;stroke-linecap:round;stroke-linejoin:round;stroke-miterlimit:10;" d="M100.184,367.94
					c0,0-2.339-3.84-4.933-6.757c-2.594-2.917-5.806-5.379-5.806-5.379"/>
				<path style="fill:none;stroke:#263238;stroke-linecap:round;stroke-linejoin:round;stroke-miterlimit:10;" d="M98.596,385.344
					c0,0-0.191-3.929-2.447-6.904c-2.256-2.976-4.914-6.927-5.995-8.481"/>
			</g>
		</g>
		<g>
			<path style="fill:#263238;" d="M122.478,430.621H89.815c-1.344,0-2.433-1.089-2.433-2.433l-4.691-36.143h46.91l-4.691,36.143
				C124.91,429.531,123.821,430.621,122.478,430.621z"/>
			<path style="fill:#263238;" d="M129.194,398.163H82.691c-2.028,0-3.671-1.643-3.671-3.671l0,0c0-2.028,1.644-3.671,3.671-3.671
				h46.503c2.028,0,3.671,1.644,3.671,3.671l0,0C132.865,396.519,131.221,398.163,129.194,398.163z"/>
		</g>
	</g>
</g>
<g id="Page">
	<g>
		<g>
			<rect x="116.082" y="93.048" style="fill:#C6FF00;" width="302.786" height="250.893"/>
			<rect x="116.082" y="93.048" style="opacity:0.5;fill:#FFFFFF;" width="302.786" height="250.893"/>
		</g>
		<rect x="169" y="133.385" style="fill:#FFFFFF;" width="248.06" height="207.231"/>
		<g>
			<g>
				
					<line style="fill:none;stroke:#8C8C8C;stroke-width:0.5;stroke-miterlimit:10;" x1="236.769" y1="321.962" x2="409.575" y2="321.962"/>
				<g>
					<g>
						
							<line style="fill:none;stroke:#8C8C8C;stroke-width:0.5;stroke-miterlimit:10;" x1="236.769" y1="321.962" x2="236.769" y2="320.384"/>
						
							<line style="fill:none;stroke:#8C8C8C;stroke-width:0.5;stroke-miterlimit:10;" x1="409.575" y1="321.962" x2="409.575" y2="320.384"/>
					</g>
				</g>
			</g>
			<g>
				
					<line style="fill:none;stroke:#8C8C8C;stroke-width:0.5;stroke-miterlimit:10;" x1="245.286" y1="321.962" x2="245.286" y2="258.848"/>
				<g>
					<g>
						
							<line style="fill:none;stroke:#8C8C8C;stroke-width:0.5;stroke-miterlimit:10;" x1="245.286" y1="321.962" x2="249.606" y2="321.962"/>
						
							<line style="fill:none;stroke:#8C8C8C;stroke-width:0.5;stroke-miterlimit:10;" x1="245.286" y1="314.073" x2="249.606" y2="314.073"/>
						
							<line style="fill:none;stroke:#8C8C8C;stroke-width:0.5;stroke-miterlimit:10;" x1="245.286" y1="306.183" x2="249.606" y2="306.183"/>
						
							<line style="fill:none;stroke:#8C8C8C;stroke-width:0.5;stroke-miterlimit:10;" x1="245.286" y1="298.294" x2="249.606" y2="298.294"/>
						
							<line style="fill:none;stroke:#8C8C8C;stroke-width:0.5;stroke-miterlimit:10;" x1="245.286" y1="290.405" x2="249.606" y2="290.405"/>
						
							<line style="fill:none;stroke:#8C8C8C;stroke-width:0.5;stroke-miterlimit:10;" x1="245.286" y1="282.516" x2="249.606" y2="282.516"/>
						
							<line style="fill:none;stroke:#8C8C8C;stroke-width:0.5;stroke-miterlimit:10;" x1="245.286" y1="274.626" x2="249.606" y2="274.626"/>
						
							<line style="fill:none;stroke:#8C8C8C;stroke-width:0.5;stroke-miterlimit:10;" x1="245.286" y1="266.737" x2="249.606" y2="266.737"/>
						
							<line style="fill:none;stroke:#8C8C8C;stroke-width:0.5;stroke-miterlimit:10;" x1="245.286" y1="258.848" x2="249.606" y2="258.848"/>
					</g>
				</g>
			</g>
			<g>
				<g>
					<g>
						<rect x="382.192" y="274.626" style="fill:#A1A1A1;" width="9.571" height="47.335"/>
					</g>
				</g>
				<g>
					<g>
						<rect x="371.558" y="310.128" style="fill:#C6FF00;" width="9.571" height="11.834"/>
					</g>
				</g>
				<g>
					<g>
						<rect x="360.923" y="307.761" style="fill:#A1A1A1;" width="9.571" height="14.201"/>
					</g>
				</g>
				<g>
					<g>
						<rect x="350.289" y="282.516" style="fill:#C6FF00;" width="9.571" height="39.446"/>
					</g>
				</g>
				<g>
					<g>
						<rect x="339.655" y="298.294" style="fill:#A1A1A1;" width="9.571" height="23.668"/>
					</g>
				</g>
				<g>
					<g>
						<rect x="329.021" y="302.239" style="fill:#C6FF00;" width="9.571" height="19.723"/>
					</g>
				</g>
				<g>
					<g>
						<rect x="318.387" y="306.183" style="fill:#A1A1A1;" width="9.571" height="15.778"/>
					</g>
				</g>
				<g>
					<g>
						<rect x="307.752" y="266.737" style="fill:#C6FF00;" width="9.571" height="55.225"/>
					</g>
				</g>
				<g>
					<g>
						<rect x="297.118" y="314.073" style="fill:#A1A1A1;" width="9.571" height="7.889"/>
					</g>
				</g>
				<g>
					<g>
						<rect x="286.484" y="298.294" style="fill:#C6FF00;" width="9.571" height="23.668"/>
					</g>
				</g>
				<g>
					<g>
						<rect x="275.85" y="282.516" style="fill:#A1A1A1;" width="9.571" height="39.446"/>
					</g>
				</g>
				<g>
					<g>
						<rect x="265.216" y="290.405" style="fill:#C6FF00;" width="9.571" height="31.557"/>
					</g>
				</g>
				<g>
					<g>
						<rect x="254.581" y="306.183" style="fill:#A1A1A1;" width="9.571" height="15.778"/>
					</g>
				</g>
			</g>
		</g>
		<g>
			<g>
				
					<line style="fill:none;stroke:#8C8C8C;stroke-width:0.5;stroke-miterlimit:10;" x1="176.738" y1="228.555" x2="404.219" y2="228.555"/>
				<g>
					<g>
						
							<line style="fill:none;stroke:#8C8C8C;stroke-width:0.5;stroke-miterlimit:10;" x1="176.738" y1="228.555" x2="176.738" y2="226.324"/>
						
							<line style="fill:none;stroke:#8C8C8C;stroke-width:0.5;stroke-miterlimit:10;" x1="188.711" y1="228.555" x2="188.711" y2="226.324"/>
						
							<line style="fill:none;stroke:#8C8C8C;stroke-width:0.5;stroke-miterlimit:10;" x1="200.684" y1="228.555" x2="200.684" y2="226.324"/>
						
							<line style="fill:none;stroke:#8C8C8C;stroke-width:0.5;stroke-miterlimit:10;" x1="212.656" y1="228.555" x2="212.656" y2="226.324"/>
						
							<line style="fill:none;stroke:#8C8C8C;stroke-width:0.5;stroke-miterlimit:10;" x1="224.629" y1="228.555" x2="224.629" y2="226.324"/>
						
							<line style="fill:none;stroke:#8C8C8C;stroke-width:0.5;stroke-miterlimit:10;" x1="236.602" y1="228.555" x2="236.602" y2="226.324"/>
						
							<line style="fill:none;stroke:#8C8C8C;stroke-width:0.5;stroke-miterlimit:10;" x1="248.574" y1="228.555" x2="248.574" y2="226.324"/>
						
							<line style="fill:none;stroke:#8C8C8C;stroke-width:0.5;stroke-miterlimit:10;" x1="260.547" y1="228.555" x2="260.547" y2="226.324"/>
						
							<line style="fill:none;stroke:#8C8C8C;stroke-width:0.5;stroke-miterlimit:10;" x1="272.52" y1="228.555" x2="272.52" y2="226.324"/>
						
							<line style="fill:none;stroke:#8C8C8C;stroke-width:0.5;stroke-miterlimit:10;" x1="284.492" y1="228.555" x2="284.492" y2="226.324"/>
						
							<line style="fill:none;stroke:#8C8C8C;stroke-width:0.5;stroke-miterlimit:10;" x1="296.465" y1="228.555" x2="296.465" y2="226.324"/>
						
							<line style="fill:none;stroke:#8C8C8C;stroke-width:0.5;stroke-miterlimit:10;" x1="308.438" y1="228.555" x2="308.438" y2="226.324"/>
						
							<line style="fill:none;stroke:#8C8C8C;stroke-width:0.5;stroke-miterlimit:10;" x1="320.41" y1="228.555" x2="320.41" y2="226.324"/>
						
							<line style="fill:none;stroke:#8C8C8C;stroke-width:0.5;stroke-miterlimit:10;" x1="332.383" y1="228.555" x2="332.383" y2="226.324"/>
						
							<line style="fill:none;stroke:#8C8C8C;stroke-width:0.5;stroke-miterlimit:10;" x1="344.356" y1="228.555" x2="344.356" y2="226.324"/>
						
							<line style="fill:none;stroke:#8C8C8C;stroke-width:0.5;stroke-miterlimit:10;" x1="356.328" y1="228.555" x2="356.328" y2="226.324"/>
						
							<line style="fill:none;stroke:#8C8C8C;stroke-width:0.5;stroke-miterlimit:10;" x1="368.301" y1="228.555" x2="368.301" y2="226.324"/>
						
							<line style="fill:none;stroke:#8C8C8C;stroke-width:0.5;stroke-miterlimit:10;" x1="380.274" y1="228.555" x2="380.274" y2="226.324"/>
						
							<line style="fill:none;stroke:#8C8C8C;stroke-width:0.5;stroke-miterlimit:10;" x1="392.246" y1="228.555" x2="392.246" y2="226.324"/>
						
							<line style="fill:none;stroke:#8C8C8C;stroke-width:0.5;stroke-miterlimit:10;" x1="404.219" y1="228.555" x2="404.219" y2="226.324"/>
					</g>
				</g>
			</g>
			<g>
				
					<line style="fill:none;stroke:#8C8C8C;stroke-width:0.5;stroke-miterlimit:10;" x1="176.738" y1="228.555" x2="176.738" y2="139.326"/>
				<g>
					<g>
						
							<line style="fill:none;stroke:#8C8C8C;stroke-width:0.5;stroke-miterlimit:10;" x1="176.738" y1="228.555" x2="182.425" y2="228.555"/>
						
							<line style="fill:none;stroke:#8C8C8C;stroke-width:0.5;stroke-miterlimit:10;" x1="176.738" y1="210.709" x2="182.425" y2="210.709"/>
						
							<line style="fill:none;stroke:#8C8C8C;stroke-width:0.5;stroke-miterlimit:10;" x1="176.738" y1="192.863" x2="182.425" y2="192.863"/>
						
							<line style="fill:none;stroke:#8C8C8C;stroke-width:0.5;stroke-miterlimit:10;" x1="176.738" y1="175.018" x2="182.425" y2="175.018"/>
						
							<line style="fill:none;stroke:#8C8C8C;stroke-width:0.5;stroke-miterlimit:10;" x1="176.738" y1="157.172" x2="182.425" y2="157.172"/>
						
							<line style="fill:none;stroke:#8C8C8C;stroke-width:0.5;stroke-miterlimit:10;" x1="176.738" y1="139.326" x2="182.425" y2="139.326"/>
					</g>
				</g>
			</g>
			<g>
				<g>
					<g>
						
							<line style="fill:none;stroke:#C6FF00;stroke-width:2;stroke-linecap:round;stroke-miterlimit:10;" x1="194.697" y1="157.172" x2="182.725" y2="210.709"/>
						
							<line style="fill:none;stroke:#C6FF00;stroke-width:2;stroke-linecap:round;stroke-miterlimit:10;" x1="206.67" y1="187.51" x2="194.697" y2="157.172"/>
						
							<line style="fill:none;stroke:#C6FF00;stroke-width:2;stroke-linecap:round;stroke-miterlimit:10;" x1="218.643" y1="175.018" x2="206.67" y2="187.51"/>
						
							<line style="fill:none;stroke:#C6FF00;stroke-width:2;stroke-linecap:round;stroke-miterlimit:10;" x1="230.615" y1="207.14" x2="218.643" y2="175.018"/>
						
							<line style="fill:none;stroke:#C6FF00;stroke-width:2;stroke-linecap:round;stroke-miterlimit:10;" x1="242.588" y1="157.172" x2="230.615" y2="207.14"/>
						
							<line style="fill:none;stroke:#C6FF00;stroke-width:2;stroke-linecap:round;stroke-miterlimit:10;" x1="254.561" y1="139.326" x2="242.588" y2="157.172"/>
						
							<line style="fill:none;stroke:#C6FF00;stroke-width:2;stroke-linecap:round;stroke-miterlimit:10;" x1="266.533" y1="219.632" x2="254.561" y2="139.326"/>
						
							<line style="fill:none;stroke:#C6FF00;stroke-width:2;stroke-linecap:round;stroke-miterlimit:10;" x1="278.506" y1="214.278" x2="266.533" y2="219.632"/>
						
							<line style="fill:none;stroke:#C6FF00;stroke-width:2;stroke-linecap:round;stroke-miterlimit:10;" x1="290.479" y1="212.494" x2="278.506" y2="214.278"/>
						
							<line style="fill:none;stroke:#C6FF00;stroke-width:2;stroke-linecap:round;stroke-miterlimit:10;" x1="302.451" y1="207.14" x2="290.479" y2="212.494"/>
						
							<line style="fill:none;stroke:#C6FF00;stroke-width:2;stroke-linecap:round;stroke-miterlimit:10;" x1="314.424" y1="200.002" x2="302.451" y2="207.14"/>
						
							<line style="fill:none;stroke:#C6FF00;stroke-width:2;stroke-linecap:round;stroke-miterlimit:10;" x1="326.397" y1="203.571" x2="314.424" y2="200.002"/>
						
							<line style="fill:none;stroke:#C6FF00;stroke-width:2;stroke-linecap:round;stroke-miterlimit:10;" x1="338.369" y1="210.709" x2="326.397" y2="203.571"/>
						
							<line style="fill:none;stroke:#C6FF00;stroke-width:2;stroke-linecap:round;stroke-miterlimit:10;" x1="350.342" y1="173.233" x2="338.369" y2="210.709"/>
						
							<line style="fill:none;stroke:#C6FF00;stroke-width:2;stroke-linecap:round;stroke-miterlimit:10;" x1="362.315" y1="167.879" x2="350.342" y2="173.233"/>
						
							<line style="fill:none;stroke:#C6FF00;stroke-width:2;stroke-linecap:round;stroke-miterlimit:10;" x1="374.287" y1="160.741" x2="362.315" y2="167.879"/>
						
							<line style="fill:none;stroke:#C6FF00;stroke-width:2;stroke-linecap:round;stroke-miterlimit:10;" x1="386.26" y1="167.879" x2="374.287" y2="160.741"/>
						
							<line style="fill:none;stroke:#C6FF00;stroke-width:2;stroke-linecap:round;stroke-miterlimit:10;" x1="398.233" y1="175.018" x2="386.26" y2="167.879"/>
					</g>
				</g>
			</g>
			<g>
				<g>
					<g>
						<path style="fill:#FFFFFF;stroke:#C6FF00;stroke-linecap:round;stroke-linejoin:round;stroke-miterlimit:10;" d="
							M182.725,208.593L182.725,208.593c1.169,0,2.116,0.947,2.116,2.116l0,0c0,1.169-0.947,2.116-2.116,2.116l0,0
							c-1.169,0-2.116-0.947-2.116-2.116l0,0C180.608,209.54,181.556,208.593,182.725,208.593z"/>
						<path style="fill:#FFFFFF;stroke:#C6FF00;stroke-linecap:round;stroke-linejoin:round;stroke-miterlimit:10;" d="
							M194.697,155.056L194.697,155.056c1.169,0,2.116,0.947,2.116,2.116l0,0c0,1.169-0.947,2.116-2.116,2.116l0,0
							c-1.169,0-2.116-0.947-2.116-2.116l0,0C192.581,156.003,193.528,155.056,194.697,155.056z"/>
						<path style="fill:#FFFFFF;stroke:#C6FF00;stroke-linecap:round;stroke-linejoin:round;stroke-miterlimit:10;" d="
							M206.67,185.393L206.67,185.393c1.169,0,2.116,0.948,2.116,2.116l0,0c0,1.169-0.947,2.116-2.116,2.116l0,0
							c-1.169,0-2.116-0.947-2.116-2.116l0,0C204.554,186.341,205.501,185.393,206.67,185.393z"/>
						<path style="fill:#FFFFFF;stroke:#C6FF00;stroke-linecap:round;stroke-linejoin:round;stroke-miterlimit:10;" d="
							M218.643,172.902L218.643,172.902c1.169,0,2.116,0.947,2.116,2.116l0,0c0,1.169-0.947,2.116-2.116,2.116l0,0
							c-1.169,0-2.116-0.947-2.116-2.116l0,0C216.526,173.849,217.474,172.902,218.643,172.902z"/>
						<path style="fill:#FFFFFF;stroke:#C6FF00;stroke-linecap:round;stroke-linejoin:round;stroke-miterlimit:10;" d="
							M230.615,205.024L230.615,205.024c1.169,0,2.116,0.947,2.116,2.116l0,0c0,1.169-0.947,2.116-2.116,2.116l0,0
							c-1.169,0-2.116-0.947-2.116-2.116l0,0C228.499,205.971,229.447,205.024,230.615,205.024z"/>
						<path style="fill:#FFFFFF;stroke:#C6FF00;stroke-linecap:round;stroke-linejoin:round;stroke-miterlimit:10;" d="
							M242.588,155.056L242.588,155.056c1.169,0,2.116,0.947,2.116,2.116l0,0c0,1.169-0.947,2.116-2.116,2.116l0,0
							c-1.169,0-2.116-0.947-2.116-2.116l0,0C240.472,156.003,241.419,155.056,242.588,155.056z"/>
						<path style="fill:#FFFFFF;stroke:#C6FF00;stroke-linecap:round;stroke-linejoin:round;stroke-miterlimit:10;" d="
							M254.561,137.21L254.561,137.21c1.169,0,2.116,0.947,2.116,2.116l0,0c0,1.169-0.947,2.116-2.116,2.116l0,0
							c-1.169,0-2.116-0.947-2.116-2.116l0,0C252.444,138.157,253.392,137.21,254.561,137.21z"/>
						<path style="fill:#FFFFFF;stroke:#C6FF00;stroke-linecap:round;stroke-linejoin:round;stroke-miterlimit:10;" d="
							M266.533,217.516L266.533,217.516c1.169,0,2.116,0.947,2.116,2.116l0,0c0,1.169-0.947,2.116-2.116,2.116l0,0
							c-1.169,0-2.116-0.947-2.116-2.116l0,0C264.417,218.463,265.365,217.516,266.533,217.516z"/>
						<path style="fill:#FFFFFF;stroke:#C6FF00;stroke-linecap:round;stroke-linejoin:round;stroke-miterlimit:10;" d="
							M278.506,212.162L278.506,212.162c1.169,0,2.116,0.947,2.116,2.116l0,0c0,1.169-0.947,2.116-2.116,2.116l0,0
							c-1.169,0-2.116-0.947-2.116-2.116l0,0C276.39,213.11,277.337,212.162,278.506,212.162z"/>
						<path style="fill:#FFFFFF;stroke:#C6FF00;stroke-linecap:round;stroke-linejoin:round;stroke-miterlimit:10;" d="
							M290.479,210.378L290.479,210.378c1.169,0,2.116,0.947,2.116,2.116l0,0c0,1.169-0.947,2.116-2.116,2.116l0,0
							c-1.169,0-2.116-0.947-2.116-2.116l0,0C288.363,211.325,289.31,210.378,290.479,210.378z"/>
						<path style="fill:#FFFFFF;stroke:#C6FF00;stroke-linecap:round;stroke-linejoin:round;stroke-miterlimit:10;" d="
							M302.451,205.024L302.451,205.024c1.169,0,2.116,0.947,2.116,2.116l0,0c0,1.169-0.948,2.116-2.116,2.116h0
							c-1.169,0-2.116-0.947-2.116-2.116l0,0C300.335,205.971,301.283,205.024,302.451,205.024z"/>
						<path style="fill:#FFFFFF;stroke:#C6FF00;stroke-linecap:round;stroke-linejoin:round;stroke-miterlimit:10;" d="
							M314.424,197.886L314.424,197.886c1.169,0,2.116,0.947,2.116,2.116l0,0c0,1.169-0.947,2.116-2.116,2.116l0,0
							c-1.169,0-2.116-0.947-2.116-2.116l0,0C312.308,198.833,313.255,197.886,314.424,197.886z"/>
						<path style="fill:#FFFFFF;stroke:#C6FF00;stroke-linecap:round;stroke-linejoin:round;stroke-miterlimit:10;" d="
							M326.397,201.455L326.397,201.455c1.169,0,2.116,0.947,2.116,2.116l0,0c0,1.169-0.947,2.116-2.116,2.116l0,0
							c-1.169,0-2.116-0.947-2.116-2.116l0,0C324.281,202.402,325.228,201.455,326.397,201.455z"/>
						<path style="fill:#FFFFFF;stroke:#C6FF00;stroke-linecap:round;stroke-linejoin:round;stroke-miterlimit:10;" d="
							M338.369,208.593L338.369,208.593c1.169,0,2.116,0.947,2.116,2.116l0,0c0,1.169-0.947,2.116-2.116,2.116l0,0
							c-1.169,0-2.116-0.947-2.116-2.116l0,0C336.253,209.54,337.201,208.593,338.369,208.593z"/>
						<path style="fill:#FFFFFF;stroke:#C6FF00;stroke-linecap:round;stroke-linejoin:round;stroke-miterlimit:10;" d="
							M350.342,171.117L350.342,171.117c1.169,0,2.116,0.947,2.116,2.116l0,0c0,1.169-0.947,2.116-2.116,2.116l0,0
							c-1.169,0-2.116-0.947-2.116-2.116l0,0C348.226,172.064,349.173,171.117,350.342,171.117z"/>
						<path style="fill:#FFFFFF;stroke:#C6FF00;stroke-linecap:round;stroke-linejoin:round;stroke-miterlimit:10;" d="
							M362.315,165.763L362.315,165.763c1.169,0,2.116,0.947,2.116,2.116l0,0c0,1.169-0.947,2.116-2.116,2.116l0,0
							c-1.169,0-2.116-0.947-2.116-2.116l0,0C360.199,166.711,361.146,165.763,362.315,165.763z"/>
						<path style="fill:#FFFFFF;stroke:#C6FF00;stroke-linecap:round;stroke-linejoin:round;stroke-miterlimit:10;" d="
							M374.287,158.625L374.287,158.625c1.169,0,2.116,0.947,2.116,2.116l0,0c0,1.169-0.947,2.116-2.116,2.116l0,0
							c-1.169,0-2.116-0.947-2.116-2.116l0,0C372.171,159.572,373.119,158.625,374.287,158.625z"/>
						<path style="fill:#FFFFFF;stroke:#C6FF00;stroke-linecap:round;stroke-linejoin:round;stroke-miterlimit:10;" d="
							M386.26,165.763L386.26,165.763c1.169,0,2.116,0.947,2.116,2.116l0,0c0,1.169-0.947,2.116-2.116,2.116l0,0
							c-1.169,0-2.116-0.947-2.116-2.116l0,0C384.144,166.711,385.091,165.763,386.26,165.763z"/>
						<path style="fill:#FFFFFF;stroke:#C6FF00;stroke-linecap:round;stroke-linejoin:round;stroke-miterlimit:10;" d="
							M398.233,172.902L398.233,172.902c1.169,0,2.116,0.947,2.116,2.116l0,0c0,1.169-0.947,2.116-2.116,2.116l0,0
							c-1.169,0-2.116-0.947-2.116-2.116l0,0C396.117,173.849,397.064,172.902,398.233,172.902z"/>
					</g>
				</g>
			</g>
		</g>
		<rect x="411.044" y="93.048" style="fill:#DBDBDB;" width="7.824" height="250.893"/>
		<rect x="411.044" y="237.616" style="fill:#878787;" width="7.824" height="63.908"/>
		<rect x="116.082" y="93.048" style="fill:#263238;" width="302.786" height="15.359"/>
		<rect x="136" y="95.667" style="fill:#EDEDED;" width="194.667" height="8.667"/>
		<g>
			<g>
				
					<line style="fill:none;stroke:#000000;stroke-linecap:round;stroke-linejoin:round;stroke-miterlimit:10;" x1="131.299" y1="139.929" x2="159.112" y2="139.929"/>
				
					<circle style="fill:none;stroke:#000000;stroke-linecap:round;stroke-linejoin:round;stroke-miterlimit:10;" cx="126.087" cy="139.739" r="2.618"/>
			</g>
			<g>
				
					<line style="fill:none;stroke:#000000;stroke-linecap:round;stroke-linejoin:round;stroke-miterlimit:10;" x1="131.299" y1="156.69" x2="159.112" y2="156.69"/>
				
					<circle style="fill:none;stroke:#000000;stroke-linecap:round;stroke-linejoin:round;stroke-miterlimit:10;" cx="126.087" cy="156.5" r="2.618"/>
			</g>
			<g>
				
					<line style="fill:none;stroke:#000000;stroke-linecap:round;stroke-linejoin:round;stroke-miterlimit:10;" x1="131.299" y1="173.451" x2="159.112" y2="173.451"/>
				
					<circle style="fill:none;stroke:#000000;stroke-linecap:round;stroke-linejoin:round;stroke-miterlimit:10;" cx="126.087" cy="173.261" r="2.618"/>
			</g>
			<g>
				
					<line style="fill:none;stroke:#000000;stroke-linecap:round;stroke-linejoin:round;stroke-miterlimit:10;" x1="131.299" y1="190.211" x2="159.112" y2="190.211"/>
				<path style="fill:none;stroke:#000000;stroke-linecap:round;stroke-linejoin:round;stroke-miterlimit:10;" d="M128.705,190.021
					c0-1.446-1.172-2.618-2.618-2.618s-2.618,1.172-2.618,2.618c0,1.446,1.172,2.618,2.618,2.618S128.705,191.467,128.705,190.021z"
					/>
			</g>
			<g>
				
					<line style="fill:none;stroke:#000000;stroke-linecap:round;stroke-linejoin:round;stroke-miterlimit:10;" x1="131.299" y1="206.972" x2="159.112" y2="206.972"/>
				
					<circle style="fill:none;stroke:#000000;stroke-linecap:round;stroke-linejoin:round;stroke-miterlimit:10;" cx="126.087" cy="206.782" r="2.618"/>
			</g>
		</g>
		<g>
			<g>
				<g>
					<path style="fill:#A1A1A1;" d="M204.263,298.419l-18.261,17.029c-9.405-10.085-8.853-25.885,1.232-35.29
						c4.811-4.486,10.451-6.708,17.029-6.708V298.419z"/>
				</g>
			</g>
			<g>
				<g>
					<path style="fill:#C6FF00;" d="M204.263,298.419l22.442-10.946c6.045,12.394,0.898,27.342-11.496,33.387
						c-9.928,4.842-21.673,2.665-29.207-5.413L204.263,298.419z"/>
				</g>
			</g>
			<g>
				<g>
					<path style="fill:#263238;" d="M204.263,298.419v-24.969c9.929,0,18.089,5.099,22.442,14.023L204.263,298.419z"/>
				</g>
			</g>
		</g>
		<g>
			<g>
				<g>
					<path style="fill:#263238;" d="M181.082,125.132v0.838c0,0.645,0.284,0.877,0.735,0.877c0.451,0,0.735-0.232,0.735-0.877
						v-1.986c0-0.645-0.284-0.89-0.735-0.89c-0.452,0-0.735,0.245-0.735,0.89v0.271h-1.341l0.258-5.235h3.739v1.289h-2.462
						l-0.116,2.153c0.258-0.425,0.67-0.658,1.238-0.658c1.045,0,1.573,0.735,1.573,2.063v2.012c0,1.444-0.722,2.269-2.114,2.269
						c-1.393,0-2.115-0.825-2.115-2.269v-0.748H181.082z"/>
					<path style="fill:#263238;" d="M185.791,120.155c1.096,0,1.341-0.528,1.56-1.134h0.954v9.025h-1.419v-6.885h-1.096V120.155z"/>
					<path style="fill:#263238;" d="M191.879,124.449l-0.438,0.825v2.772h-1.418v-9.025h1.418v3.933l1.856-3.933h1.418l-1.973,4.022
						l1.973,5.003h-1.457L191.879,124.449z"/>
				</g>
				
					<line style="fill:none;stroke:#000000;stroke-linecap:round;stroke-linejoin:round;stroke-miterlimit:10;" x1="180.587" y1="114.16" x2="193.226" y2="114.16"/>
			</g>
			<g>
				<g>
					<path style="fill:#263238;" d="M238.95,119.11v-0.67h1.161v0.67c1.005,0.207,1.521,0.98,1.521,2.205v0.284h-1.341v-0.374
						c0-0.645-0.258-0.89-0.709-0.89c-0.451,0-0.709,0.245-0.709,0.89c0,1.857,2.772,1.947,2.772,4.526
						c0,1.225-0.529,2.011-1.534,2.218v0.657h-1.161v-0.657c-1.019-0.207-1.534-0.993-1.534-2.218v-0.619h1.341v0.71
						c0,0.645,0.284,0.876,0.735,0.876c0.451,0,0.735-0.232,0.735-0.876c0-1.857-2.772-1.947-2.772-4.526
						C237.455,120.104,237.957,119.33,238.95,119.11z"/>
					<path style="fill:#263238;" d="M243.877,125.132v0.838c0,0.645,0.284,0.877,0.735,0.877c0.451,0,0.735-0.232,0.735-0.877
						v-1.986c0-0.645-0.284-0.89-0.735-0.89c-0.452,0-0.735,0.245-0.735,0.89v0.271h-1.341l0.258-5.235h3.739v1.289h-2.462
						l-0.116,2.153c0.258-0.425,0.67-0.658,1.238-0.658c1.044,0,1.573,0.735,1.573,2.063v2.012c0,1.444-0.722,2.269-2.114,2.269
						c-1.393,0-2.115-0.825-2.115-2.269v-0.748H243.877z"/>
					<path style="fill:#263238;" d="M248.586,120.155c1.096,0,1.341-0.528,1.56-1.134h0.954v9.025h-1.419v-6.885h-1.096V120.155z"/>
					<path style="fill:#263238;" d="M254.674,124.449l-0.439,0.825v2.772h-1.418v-9.025h1.418v3.933l1.856-3.933h1.418l-1.973,4.022
						l1.973,5.003h-1.457L254.674,124.449z"/>
				</g>
				
					<line style="fill:none;stroke:#000000;stroke-linecap:round;stroke-linejoin:round;stroke-miterlimit:10;" x1="241.191" y1="114.16" x2="253.83" y2="114.16"/>
			</g>
			<g>
				<g>
					<path style="fill:#263238;" d="M295.898,121.187c0-1.444,0.761-2.27,2.152-2.27c1.393,0,2.153,0.825,2.153,2.27v4.693
						c0,1.444-0.761,2.269-2.153,2.269c-1.392,0-2.152-0.825-2.152-2.269V121.187z M297.316,125.97c0,0.645,0.283,0.89,0.734,0.89
						c0.452,0,0.735-0.245,0.735-0.89v-4.874c0-0.645-0.283-0.89-0.735-0.89c-0.451,0-0.734,0.245-0.734,0.89V125.97z"/>
					<path style="fill:#263238;" d="M302.488,126.679v1.367h-1.366v-1.367H302.488z"/>
					<path style="fill:#263238;" d="M306.255,121.238c0-0.813-0.284-1.032-0.735-1.032s-0.734,0.245-0.734,0.89v0.58h-1.341v-0.49
						c0-1.444,0.722-2.27,2.114-2.27c1.392,0,2.114,0.825,2.114,2.27v0.232c0,0.967-0.31,1.573-0.992,1.857
						c0.709,0.309,0.992,0.98,0.992,1.895v0.709c0,1.444-0.722,2.269-2.114,2.269c-1.393,0-2.114-0.825-2.114-2.269v-0.748h1.341
						v0.838c0,0.645,0.283,0.89,0.734,0.89s0.735-0.219,0.735-1.019v-0.71c0-0.838-0.284-1.147-0.929-1.147h-0.477v-1.29h0.555
						c0.528,0,0.85-0.232,0.85-0.954V121.238z"/>
					<path style="fill:#263238;" d="M308.552,120.4c0-0.928,0.478-1.444,1.367-1.444c0.89,0,1.366,0.516,1.366,1.444v2.966
						c0,0.928-0.477,1.444-1.366,1.444c-0.89,0-1.367-0.516-1.367-1.444V120.4z M309.454,123.43c0,0.399,0.168,0.567,0.465,0.567
						c0.283,0,0.464-0.168,0.464-0.567v-3.095c0-0.4-0.181-0.567-0.464-0.567c-0.297,0-0.465,0.167-0.465,0.567V123.43z
						 M313.477,119.021h0.838l-3.559,9.025h-0.838L313.477,119.021z M313.026,123.701c0-0.928,0.477-1.444,1.366-1.444
						c0.89,0,1.367,0.516,1.367,1.444v2.966c0,0.928-0.478,1.444-1.367,1.444c-0.89,0-1.366-0.516-1.366-1.444V123.701z
						 M313.929,126.731c0,0.399,0.168,0.567,0.464,0.567c0.284,0,0.464-0.167,0.464-0.567v-3.095c0-0.4-0.18-0.567-0.464-0.567
						c-0.296,0-0.464,0.167-0.464,0.567V126.731z"/>
				</g>
				
					<line style="fill:none;stroke:#000000;stroke-linecap:round;stroke-linejoin:round;stroke-miterlimit:10;" x1="299.509" y1="114.16" x2="312.149" y2="114.16"/>
			</g>
			<g>
				<g>
					<g>
						<path style="fill:#263238;" d="M181.082,249.126v0.838c0,0.645,0.284,0.876,0.735,0.876c0.451,0,0.735-0.232,0.735-0.876
							v-1.986c0-0.645-0.284-0.89-0.735-0.89c-0.452,0-0.735,0.245-0.735,0.89v0.271h-1.341l0.258-5.235h3.739v1.289h-2.462
							l-0.116,2.153c0.258-0.425,0.67-0.658,1.238-0.658c1.045,0,1.573,0.735,1.573,2.063v2.012c0,1.444-0.722,2.269-2.114,2.269
							c-1.393,0-2.115-0.825-2.115-2.269v-0.748H181.082z"/>
						<path style="fill:#263238;" d="M185.791,244.149c1.096,0,1.341-0.528,1.56-1.134h0.954v9.025h-1.419v-6.885h-1.096V244.149z"
							/>
						<path style="fill:#263238;" d="M191.879,248.443l-0.438,0.825v2.772h-1.418v-9.025h1.418v3.933l1.856-3.933h1.418
							l-1.973,4.023l1.973,5.003h-1.457L191.879,248.443z"/>
					</g>
					
						<line style="fill:none;stroke:#000000;stroke-linecap:round;stroke-linejoin:round;stroke-miterlimit:10;" x1="180.587" y1="238.154" x2="193.226" y2="238.154"/>
				</g>
				
					<line style="fill:none;stroke:#000000;stroke-linecap:round;stroke-linejoin:round;stroke-miterlimit:10;" x1="179.139" y1="257.754" x2="194.865" y2="257.754"/>
				
					<line style="fill:none;stroke:#000000;stroke-linecap:round;stroke-linejoin:round;stroke-miterlimit:10;" x1="179.139" y1="261.988" x2="194.865" y2="261.988"/>
			</g>
		</g>
	</g>
</g>
<g id="Character">
	<g>
		<g>
			<ellipse style="fill:#C6FF00;" cx="299.736" cy="440.019" rx="80" ry="17"/>
			<ellipse style="opacity:0.5;fill:#FFFFFF;" cx="299.736" cy="440.019" rx="80" ry="17"/>
		</g>
		<g>
			<polygon style="fill:#FFFFFF;stroke:#263238;stroke-linecap:round;stroke-linejoin:round;stroke-miterlimit:10;" points="
				302.726,217.452 304.598,224.315 295.447,269.445 300.854,279.428 310.005,270.069 307.717,224.315 312.085,218.7 
				307.301,211.629 			"/>
			<g>
				<path style="fill:#FFFFFF;stroke:#263238;stroke-linecap:round;stroke-linejoin:round;stroke-miterlimit:10;" d="
					M287.282,423.709c0,0-17.141,10.806-17.141,13.414s6.335,0,15.65-4.471c9.316-4.471,12.147-4.373,7.751-9.639
					C289.145,417.747,287.282,423.709,287.282,423.709z"/>
				<path style="fill:#FFFFFF;stroke:#263238;stroke-linecap:round;stroke-linejoin:round;stroke-miterlimit:10;" d="
					M322.681,425.572c0,0,1.491,16.023,5.217,20.122c3.726,4.099,6.335-2.608,5.589-6.707c-0.745-4.099-4.844-12.669-4.844-12.669
					S325.289,421.845,322.681,425.572z"/>
				<path style="fill:#263238;stroke:#263238;stroke-linecap:round;stroke-linejoin:round;stroke-miterlimit:10;" d="
					M279.457,274.288c0,0-2.236,17.513-2.236,36.144s-2.236,34.654-1.491,43.224c0.655,7.537,7.939,57.722,9.686,69.717
					c0.229,1.573,1.348,2.864,2.87,3.32l0,0c2.529,0.759,5.104-1.044,5.256-3.68l4.173-72.337l5.589-42.851
					c0,0,4.471,55.148,5.962,64.463c1.27,7.934,10.107,43.978,12.701,54.495c0.552,2.239,2.232,4.089,4.468,4.648
					c0.261,0.065,0.504,0.103,0.717,0.103c1.008,0,2.017-2.217,2.563-3.651c0.277-0.725,0.419-1.491,0.423-2.267l0.367-70.469
					l0.745-54.03c0,0,2.16-14.749,1.08-21.348C331.251,273.17,279.457,274.288,279.457,274.288z"/>
				
					<line style="fill:none;stroke:#FFFFFF;stroke-linecap:round;stroke-linejoin:round;stroke-miterlimit:10;" x1="302.187" y1="306.333" x2="290.636" y2="301.117"/>
			</g>
			<g>
				<path style="fill:#FFFFFF;stroke:#263238;stroke-linecap:round;stroke-linejoin:round;stroke-miterlimit:10;" d="
					M238.704,235.634l-3.259-1.385c-5.115-0.998-6.78-7.429-6.78-7.429s-3.37,3.028-4.866,2.049
					c-1.496-0.979,3.777-4.791,3.777-4.791s-8.342,4.26-9.64,3.304c-1.297-0.956,6.45-5.285,6.45-5.285s-9.815,3.082-10.447,1.6
					c-0.632-1.482,17.433-8.03,20.212-7.706c2.779,0.324,4.491,6.357,5.451,8.481c0.96,2.124,2.294,4.492,2.294,4.492l1.834,2.314
					l20.951,15.391c0,0,18.362-39.624,20.054-41.557c1.691-1.933,21.02-3.624,21.02-3.624l1.45-0.242c0,0,5.074,0.242,11.114,1.208
					c6.04,0.966,23.678,10.148,23.678,10.148l-9.664,61.852c0,0,0,4.107,0,5.315c0,1.208-0.966,2.416-2.174,3.141
					c-1.208,0.725-49.047-4.349-49.047-4.349s-2.899-0.242-3.141-1.691c-0.242-1.45,2.174-21.503,2.174-21.503
					s-7.248,7.973-9.423,8.215c-1.873,0.208-23.188-19.491-30.89-26.741L238.704,235.634z"/>
				<path style="fill:#FFFFFF;stroke:#263238;stroke-linecap:round;stroke-linejoin:round;stroke-miterlimit:10;" d="
					M330.157,282.91c1.208-0.725,2.174-1.933,2.174-3.141c0-1.208,0-5.315,0-5.315l9.664-61.852c0,0-17.638-9.181-23.678-10.148
					c-6.04-0.966-11.114-1.208-11.114-1.208l-1.45,0.242c0,0-19.329,1.691-21.02,3.624c-1.444,1.651-15.048,30.792-18.988,39.262
					l8.453,16.906c2.776-2.432,5.944-5.913,5.944-5.913s-2.416,20.054-2.174,21.503c0.242,1.45,3.141,1.691,3.141,1.691
					S328.949,283.635,330.157,282.91z"/>
				
					<line style="fill:none;stroke:#263238;stroke-linecap:round;stroke-linejoin:round;stroke-miterlimit:10;" x1="280.144" y1="255.367" x2="285.88" y2="219.324"/>
				<path style="fill:#FFFFFF;stroke:#263238;stroke-linecap:round;stroke-linejoin:round;stroke-miterlimit:10;" d="
					M264.681,246.669c0,0,7.056,14.684,7.056,16.018c0,1.333,3,1,3,1s4.667-3.333,4.333-7c-0.333-3.667-10-19-10-19
					S263.292,240.318,264.681,246.669z"/>
			</g>
			<path style="fill:#263238;stroke:#263238;stroke-linecap:round;stroke-linejoin:round;stroke-miterlimit:10;" d="
				M209.222,214.377l34.731,3.234c1.458,0.136,2.584,0.99,2.48,1.883l0,0c-0.105,0.899-1.414,1.473-2.874,1.259l-34.502-5.059
				c-0.571-0.084-0.988-0.426-0.947-0.778l0,0C208.151,214.561,208.642,214.323,209.222,214.377z"/>
			<path style="fill:#FFFFFF;stroke:#263238;stroke-linecap:round;stroke-linejoin:round;stroke-miterlimit:10;" d="
				M236.942,226.576c0,0-3.069-8.204-4.061-8.319c-0.993-0.116-12.833-2.098-13.323-1.35c-0.489,0.748-1.201,1.671-0.079,2.405
				c1.122,0.734,8.655,3.422,8.655,3.422s0.031,6.643,5.054,8.435"/>
			<path style="fill:#FFFFFF;stroke:#263238;stroke-linecap:round;stroke-linejoin:round;stroke-miterlimit:10;" d="
				M234.046,216.103c0,0-2.447-3.092-5.172-2.956c-2.725,0.136-10.14,0.736-7.456,1.827
				C224.102,216.064,234.046,216.103,234.046,216.103z"/>
			<path style="fill:#FFFFFF;stroke:#263238;stroke-linecap:round;stroke-linejoin:round;stroke-miterlimit:10;" d="M308.171,197.38
				c0,0-3.383,1.45-3.866,3.624c-0.483,2.174-1.45,11.356-3.624,14.255c-2.174,2.899-2.658,4.591-2.658,4.591l8.698-2.899
				l9.664,11.114c0,0,1.691-7.49,4.832-13.047c3.141-5.557,5.315-7.007,5.315-11.597c0-4.591-5.799-6.765-7.49-7.007
				C317.352,196.172,308.171,197.38,308.171,197.38z"/>
			<g>
				<g>
					<path style="fill:#FFFFFF;stroke:#263238;stroke-linecap:round;stroke-linejoin:round;stroke-miterlimit:10;" d="
						M296.09,161.622c0,0-1.45,5.557-0.483,6.765c0.966,1.208,1.691,3.866,0.725,5.315c-0.967,1.45-3.383,4.107-3.141,4.832
						c0.242,0.725,4.107,2.658,4.107,2.658s0.242,11.114,2.174,11.839c1.933,0.725,7.007,0.483,7.007,0.483l0.242,23.436
						l15.705-15.705l-0.483-15.705c0,0,4.832-2.416,6.04-4.591c1.208-2.175-0.725-7.007-0.725-7.007s-0.483-11.114-0.483-12.322
						c0-1.208-1.208-7.49-8.215-7.731C311.553,153.649,296.09,161.622,296.09,161.622z"/>
					<g>
						<path style="fill:#263238;" d="M302.372,172.132c0,0.867-0.433,1.57-0.966,1.57c-0.534,0-0.966-0.703-0.966-1.57
							c0-0.867,0.433-1.57,0.966-1.57C301.939,170.561,302.372,171.264,302.372,172.132z"/>
						<path style="fill:none;stroke:#263238;stroke-linecap:round;stroke-linejoin:round;stroke-miterlimit:10;" d="
							M299.231,169.595c0,0,2.416-2.174,5.074,0.725"/>
						<path style="fill:none;stroke:#263238;stroke-linecap:round;stroke-linejoin:round;stroke-miterlimit:10;" d="
							M306.479,193.514c0,0,7.973-1.691,10.872-5.799"/>
					</g>
				</g>
				<path style="fill:#263238;stroke:#263238;stroke-linecap:round;stroke-linejoin:round;stroke-miterlimit:10;" d="
					M317.352,159.206c0,0-19.812,4.591-23.919,4.107c-4.107-0.483-7.248-8.698-3.866-12.805c3.383-4.107,19.087-6.282,26.577-4.107
					s17.638,7.49,16.913,10.872c-0.725,3.382-5.799,16.671-5.799,16.671s-4.107-2.174-5.315,0.242
					c-1.208,2.416-1.45,3.624-1.45,3.624s-0.725,1.691-1.691,0c-0.966-1.691-0.966-3.382-2.899-6.282
					c-1.933-2.899-5.315-6.04-3.866-7.49C313.486,162.588,317.352,159.206,317.352,159.206z"/>
			</g>
			<g>
				<polygon style="fill:#C6FF00;stroke:#263238;stroke-linecap:round;stroke-linejoin:round;stroke-miterlimit:10;" points="
					265.747,244.374 281.403,272.353 307.736,274.353 293.403,245.019 				"/>
				<g>
					<path style="fill:#FFFFFF;stroke:#263238;stroke-linecap:round;stroke-linejoin:round;stroke-miterlimit:10;" d="
						M328.736,229.019l6,33.667l19.333,4c0,0-5-48-6.333-51c-1.333-3-10-5.333-11-5.333"/>
					<path style="fill:#FFFFFF;stroke:#263238;stroke-linecap:round;stroke-linejoin:round;stroke-miterlimit:10;" d="
						M330.07,262.019c0,0,1.667-8.333,5.667-9c4-0.667,15.667-1.333,18.333,5c2.667,6.333,3,10,1,12.333
						c-2,2.333-7,0.667-14.667-1.667C332.736,266.353,330.07,262.019,330.07,262.019z"/>
					<g>
						<path style="fill:#FFFFFF;stroke:#263238;stroke-linecap:round;stroke-linejoin:round;stroke-miterlimit:10;" d="
							M312.52,259.232l-13.047-3.624l-13.047,6.523c0,0-1.691,0.967-0.725,1.933c0.967,0.966,2.658,0.242,2.658,0.242
							s-0.966,1.45,0,2.174c0.966,0.725,6.523-0.966,6.523-0.966s-5.315,3.624-3.624,4.349c1.691,0.725,9.423-3.141,9.423-3.141
							l-4.338,3.718c-0.396,0.34-0.303,0.995,0.185,1.179c0.438,0.165,0.594,0.251,1.308,0.149c1.691-0.242,7.708-4.769,7.708-4.769
							l9.15-0.036c0,0,32.134,6.765,36.483,6.523s5.074-8.215,2.174-11.839c-2.899-3.624-9.664-3.141-11.356-3.141
							C340.305,258.508,312.52,259.232,312.52,259.232z"/>
						
							<line style="fill:none;stroke:#263238;stroke-linecap:round;stroke-linejoin:round;stroke-miterlimit:10;" x1="288.358" y1="264.306" x2="294.882" y2="261.89"/>
						
							<line style="fill:#FFFFFF;stroke:#263238;stroke-linecap:round;stroke-linejoin:round;stroke-miterlimit:10;" x1="294.882" y1="265.514" x2="298.023" y2="264.306"/>
					</g>
				</g>
				<polygon style="fill:#FFFFFF;stroke:#263238;stroke-linecap:round;stroke-linejoin:round;stroke-miterlimit:10;" points="
					273.609,244.905 276.105,248.648 286.296,249.064 283.8,245.113 				"/>
			</g>
		</g>
	</g>
</g>
</svg>
